<svg width="24" height="28" viewBox="0 0 24 28" fill="none" xmlns="http://www.w3.org/2000/svg">
<path d="M23.4012 21.8205C22.9739 22.7987 22.4681 23.6992 21.8821 24.5271C21.0833 25.6557 20.4292 26.4369 19.9252 26.8707C19.1438 27.5828 18.3067 27.9475 17.4102 27.9682C16.7666 27.9682 15.9905 27.7867 15.0871 27.4186C14.1807 27.0522 13.3477 26.8707 12.586 26.8707C11.7872 26.8707 10.9305 27.0522 10.0142 27.4186C9.09643 27.7867 8.3571 27.9786 7.79184 27.9976C6.93217 28.0339 6.0753 27.6588 5.21999 26.8707C4.67408 26.3989 3.99127 25.59 3.17329 24.4441C2.29565 23.2205 1.57412 21.8015 1.00886 20.1838C0.40348 18.4364 0.100006 16.7444 0.100006 15.1062C0.100006 13.2298 0.509172 11.6114 1.32873 10.2551C1.97282 9.16575 2.8297 8.30642 3.90215 7.67557C4.97459 7.04473 6.13337 6.72326 7.38128 6.70269C8.06409 6.70269 8.95952 6.91199 10.0723 7.32334C11.1818 7.73607 11.8943 7.94537 12.2067 7.94537C12.4402 7.94537 13.2317 7.70063 14.5734 7.21272C15.8423 6.76024 16.9131 6.57289 17.7904 6.64669C20.1676 6.83681 21.9536 7.76545 23.1413 9.43848C21.0153 10.715 19.9636 12.503 19.9845 14.7967C20.0037 16.5833 20.6577 18.07 21.9431 19.2505C22.5257 19.7983 23.1762 20.2218 23.9 20.5225C23.743 20.9736 23.5773 21.4057 23.4012 21.8205ZM17.9491 0.56016C17.9491 1.96048 17.4329 3.26795 16.4039 4.47814C15.1621 5.91681 13.66 6.74814 12.0312 6.61696C12.0105 6.44897 11.9984 6.27216 11.9984 6.08636C11.9984 4.74206 12.589 3.30338 13.6377 2.12707C14.1613 1.53149 14.8272 1.03627 15.6347 0.641218C16.4405 0.252064 17.2027 0.0368539 17.9195 0C17.9404 0.187201 17.9491 0.374414 17.9491 0.560141V0.56016Z" fill="black"/>
</svg>
