<svg width="14" height="14" viewBox="0 0 14 14" fill="none" xmlns="http://www.w3.org/2000/svg">
<path d="M13.5257 2.49895C12.6867 1.4469 11.5077 0.836359 10.3941 0.836359C8.92413 0.836359 8.30232 1.54012 7.281 1.54012C6.22793 1.54012 5.42788 0.838408 4.1566 0.838408C2.90787 0.838408 1.57821 1.60158 0.73513 2.90666C-0.450093 4.74443 -0.247263 8.19971 1.67347 11.1428C2.36084 12.1959 3.2787 13.3801 4.47929 13.3903C5.54773 13.4006 5.8489 12.705 7.29637 12.6978C8.74384 12.6896 9.01838 13.3995 10.0848 13.3883C11.2864 13.3791 12.2544 12.0668 12.9418 11.0137C13.4345 10.2587 13.6179 9.87869 14 9.0264C11.2208 7.9682 10.7752 4.01608 13.5257 2.49895Z" fill="white"/>
</svg>
