<svg width="22" height="22" viewBox="0 0 22 22" fill="none" xmlns="http://www.w3.org/2000/svg">
<path d="M21.9999 6.44815V19.3447C21.9999 19.7471 21.84 20.133 21.5555 20.4175C21.271 20.7021 20.885 20.8619 20.4827 20.8619H12.1378C11.9386 20.862 11.7413 20.8228 11.5571 20.7466C11.373 20.6703 11.2057 20.5586 11.0648 20.4177C10.9239 20.2768 10.8122 20.1095 10.736 19.9254C10.6597 19.7413 10.6205 19.5439 10.6206 19.3447V6.44815C10.6206 6.04575 10.7805 5.65983 11.065 5.3753C11.3495 5.09076 11.7354 4.93091 12.1378 4.93091H20.4827C20.885 4.93091 21.271 5.09076 21.5555 5.3753C21.84 5.65983 21.9999 6.04575 21.9999 6.44815Z" fill="#348FD9"/>
<path d="M21.9999 7.24536V19.3449C21.9999 19.7473 21.8401 20.1332 21.5555 20.4177C21.271 20.7022 20.8851 20.8621 20.4827 20.8621H12.1379C11.7833 20.862 11.4399 20.7378 11.1673 20.5109C10.8948 20.2841 10.7102 19.969 10.6458 19.6203C14.243 17.8637 19.2305 14.2749 21.9999 7.24536Z" fill="#3086CD"/>
<path d="M20.1033 21.9999C21.1508 21.9999 21.9999 21.1508 21.9999 20.1033C21.9999 19.0559 21.1508 18.2068 20.1033 18.2068C19.0559 18.2068 18.2068 19.0559 18.2068 20.1033C18.2068 21.1508 19.0559 21.9999 20.1033 21.9999Z" fill="#4D5E78"/>
<path d="M14.7932 6.44849H15.5518V19.345H14.7932V6.44849Z" fill="#2A71AD"/>
<path d="M17.0691 6.44849H17.8277V18.2071H17.0691V6.44849Z" fill="#2A71AD"/>
<path d="M19.3447 6.44849H20.1033V17.0692H19.3447V6.44849Z" fill="#2A71AD"/>
<path d="M12.5171 6.44849H13.2757V19.345H12.5171V6.44849Z" fill="#2A71AD"/>
<path d="M18.2067 0H14.4136C13.9947 0 13.655 0.339645 13.655 0.758619C13.655 1.17759 13.9947 1.51724 14.4136 1.51724H18.2067C18.6257 1.51724 18.9654 1.17759 18.9654 0.758619C18.9654 0.339645 18.6257 0 18.2067 0Z" fill="#4D5E78"/>
<path d="M14.4138 1.51733H15.1724V4.93112H14.4138V1.51733Z" fill="#E0E0DE"/>
<path d="M17.4482 1.51733H18.2069V4.93112H17.4482V1.51733Z" fill="#E0E0DE"/>
<path d="M14.4138 1.51733H15.1724V2.27595H14.4138V1.51733Z" fill="#D6D6D4"/>
<path d="M17.4482 1.51733H18.2069V2.27595H17.4482V1.51733Z" fill="#D6D6D4"/>
<path d="M15.5517 12.8966V20.4828C15.5517 20.8852 15.3918 21.2711 15.1073 21.5557C14.8228 21.8402 14.4368 22.0001 14.0344 22.0001H1.51724C1.31794 22.0002 1.12057 21.9611 0.93641 21.8849C0.752252 21.8087 0.584923 21.697 0.444 21.5561C0.303076 21.4151 0.191324 21.2478 0.115138 21.0637C0.0389513 20.8795 -0.000174031 20.6821 5.81889e-07 20.4828V12.8966C5.81889e-07 12.4942 0.159852 12.1083 0.444389 11.8238C0.728926 11.5392 1.11484 11.3794 1.51724 11.3794H14.0344C14.2337 11.3793 14.4311 11.4185 14.6152 11.4947C14.7993 11.5709 14.9666 11.6827 15.1075 11.8236C15.2484 11.9645 15.3601 12.1318 15.4364 12.3159C15.5126 12.5 15.5518 12.6974 15.5517 12.8966Z" fill="#F35244"/>
<path d="M15.5516 12.8969V20.483C15.5516 20.8854 15.3918 21.2714 15.1072 21.5559C14.8227 21.8404 14.4368 22.0003 14.0344 22.0003H1.51716C1.20115 22.0008 0.892912 21.9023 0.635742 21.7186C4.32832 20.7358 10.9743 18.1465 14.9959 11.7229C15.1698 11.8652 15.3098 12.0443 15.4059 12.2473C15.502 12.4504 15.5518 12.6722 15.5516 12.8969Z" fill="#EA4A3B"/>
<path d="M14.0343 22H13.2757V19.7241H15.5515V20.4828C15.5515 20.8852 15.3917 21.2711 15.1071 21.5556C14.8226 21.8401 14.4367 22 14.0343 22Z" fill="#FC685B"/>
<path d="M15.5515 13.655H13.2757V11.3792H14.0343C14.4367 11.3792 14.8226 11.539 15.1071 11.8236C15.3917 12.1081 15.5515 12.494 15.5515 12.8964V13.655Z" fill="#FC685B"/>
<path d="M4.17261 9.4829V11.3794H5.68985V9.86221H9.48294V11.3794H11.0002V9.4829C11.0002 9.1811 10.8803 8.89166 10.6669 8.67826C10.4535 8.46486 10.164 8.34497 9.86225 8.34497H5.31054C5.00874 8.34497 4.7193 8.46486 4.5059 8.67826C4.2925 8.89166 4.17261 9.1811 4.17261 9.4829Z" fill="#4D5E78"/>
<path d="M3.41406 12.8965H11.7589V13.6551H3.41406V12.8965Z" fill="#CF3B2E"/>
<path d="M1.51709 15.1726H13.655V15.9312H1.51709V15.1726Z" fill="#CF3B2E"/>
<path d="M1.51709 17.4482H13.655V18.2069H1.51709V17.4482Z" fill="#CF3B2E"/>
<path d="M3.41406 19.7241H11.7589V20.4827H3.41406V19.7241Z" fill="#CF3B2E"/>
<path d="M0 19.7241H2.27586V22H1.51724C1.11484 22 0.728926 21.8401 0.444389 21.5556C0.159851 21.2711 0 20.8851 0 20.4827V19.7241Z" fill="#FC685B"/>
<path d="M1.51724 11.3794H2.27586V13.6553H0V12.8966C0 12.4942 0.159851 12.1083 0.444389 11.8238C0.728926 11.5392 1.11484 11.3794 1.51724 11.3794Z" fill="#FC685B"/>
</svg>
