<svg width="27" height="27" viewBox="0 0 27 27" fill="none" xmlns="http://www.w3.org/2000/svg">
<g clip-path="url(#clip0_23_184)">
<path d="M13.5527 0C6.13311 0 0 6.02754 0 13.4473C0 20.867 6.13311 27 13.5527 27C20.9724 27 27 20.867 27 13.4473C27 6.02754 20.9724 0 13.5527 0Z" fill="#FEDB41"/>
<path d="M27 13.4473C27 20.867 20.9724 27 13.5527 27V0C20.9724 0 27 6.02754 27 13.4473Z" fill="#FFCC33"/>
<path d="M13.5527 3.16406C7.88896 3.16406 3.16406 7.78354 3.16406 13.4473C3.16406 19.111 7.88896 23.8359 13.5527 23.8359C19.2165 23.8359 23.8359 19.111 23.8359 13.4473C23.8359 7.78354 19.2165 3.16406 13.5527 3.16406Z" fill="#FEA832"/>
<path d="M23.8359 13.4473C23.8359 19.111 19.2165 23.8359 13.5527 23.8359V3.16406C19.2165 3.16406 23.8359 7.78354 23.8359 13.4473Z" fill="#FE9923"/>
<path d="M18 7.71429C18 7.71429 16.3157 7.71429 15.8356 7.71429C15.0948 7.71429 14.7133 7.99187 14.1794 8.65995C13.7104 9.2469 8.27217 15.8569 7.71423 16.6483C11.146 16.8885 13.4627 14.2631 13.8611 13.7763L13.1292 13.5664L13.13 13.4502L13.999 13.4025L14.5906 12.6629L13.409 12.1483L13.3697 12.0091L15.0059 12.1332C15.6881 11.2814 15.9855 11.1859 16.068 11.2511C16.1506 11.3156 16.1306 11.6297 15.4484 12.4815L15.9414 14.0348L15.7955 14.0285L15.0219 13.0033L14.4295 13.7429L14.5794 14.5931L14.4656 14.6202L14.0912 13.9569C13.7778 14.3219 12.6867 15.7273 13.5261 16.7143H17.9983V7.71429H18Z" fill="#FEDB41"/>
</g>
<defs>
<clipPath id="clip0_23_184">
<rect width="27" height="27" fill="white"/>
</clipPath>
</defs>
</svg>
