<svg width="119" height="119" viewBox="0 0 119 119" fill="none" xmlns="http://www.w3.org/2000/svg">
<path d="M103.287 0.928772H37.0299C28.3877 0.928772 21.3168 7.99974 21.3168 16.6419V21.9885H81.2516C89.8938 21.9885 96.9648 29.0595 96.9648 37.7016V76.8756H103.287C111.929 76.8756 119 69.8047 119 61.1625V16.6419C119 7.99951 111.929 0.928772 103.287 0.928772Z" fill="#6C7ED6"/>
<path d="M92.1462 21.2701H25.8892C24.3004 21.2701 22.7652 21.5109 21.3168 21.9548V21.9885H81.2516C89.8938 21.9885 96.9648 29.0595 96.9648 37.7016V76.8756H103.287C104.875 76.8756 106.411 76.6348 107.859 76.1909V36.9832C107.859 28.3411 100.788 21.2701 92.1462 21.2701Z" fill="#4F67D2"/>
<path d="M81.9701 21.2701H15.7131C7.07097 21.2701 0 28.3411 0 36.9832V81.5036C0 90.1458 7.07097 97.2167 15.7131 97.2167H55.4796C57.1844 97.2167 58.4571 98.8032 58.0671 100.463C57.0126 104.952 55.3989 109.7 53.0133 114.567C51.9421 116.753 54.379 118.976 56.449 117.694C62.4341 113.99 70.9496 107.791 78.1209 99.0271C79.0636 97.8749 80.4814 97.2165 81.9701 97.2165C90.6122 97.2165 97.6832 90.1455 97.6832 81.5034V36.983C97.6832 28.3411 90.6122 21.2701 81.9701 21.2701Z" fill="#60B8FE"/>
<path d="M68.2432 100.463C68.633 98.8031 67.3605 97.2168 65.6557 97.2168H55.4795C57.1843 97.2168 58.4569 98.8031 58.0671 100.463C57.0126 104.952 55.3989 109.7 53.0133 114.568C51.9421 116.753 54.379 118.976 56.449 117.695C58.7453 116.273 61.4147 114.483 64.2372 112.324C66.0575 108.242 67.3514 104.26 68.2432 100.463Z" fill="#23A8FE"/>
<path d="M10.1761 81.5036V36.9832C10.1761 28.3411 17.2471 21.2701 25.8892 21.2701H15.7131C7.07097 21.2701 0 28.3411 0 36.9832V81.5036C0 90.1457 7.07097 97.2167 15.7131 97.2167H25.8892C17.2469 97.2167 10.1761 90.146 10.1761 81.5036Z" fill="#23A8FE"/>
<path d="M21.7812 65.7361C24.6609 65.7361 26.9953 63.4017 26.9953 60.522C26.9953 57.6423 24.6609 55.3078 21.7812 55.3078C18.9015 55.3078 16.567 57.6423 16.567 60.522C16.567 63.4017 18.9015 65.7361 21.7812 65.7361Z" fill="#DFEBFA"/>
<path d="M38.6224 65.7361C41.5021 65.7361 43.8366 63.4017 43.8366 60.522C43.8366 57.6423 41.5021 55.3078 38.6224 55.3078C35.7427 55.3078 33.4083 57.6423 33.4083 60.522C33.4083 63.4017 35.7427 65.7361 38.6224 65.7361Z" fill="#DFEBFA"/>
<path d="M55.4635 65.7361C58.3432 65.7361 60.6776 63.4017 60.6776 60.522C60.6776 57.6423 58.3432 55.3078 55.4635 55.3078C52.5838 55.3078 50.2493 57.6423 50.2493 60.522C50.2493 63.4017 52.5838 65.7361 55.4635 65.7361Z" fill="#DFEBFA"/>
<path d="M72.3048 65.7361C75.1845 65.7361 77.5189 63.4017 77.5189 60.522C77.5189 57.6423 75.1845 55.3078 72.3048 55.3078C69.4251 55.3078 67.0906 57.6423 67.0906 60.522C67.0906 63.4017 69.4251 65.7361 72.3048 65.7361Z" fill="#DFEBFA"/>
<path d="M21.7812 60.522C21.7812 58.5924 22.8303 56.9087 24.3882 56.0072C23.621 55.5632 22.7313 55.3078 21.7812 55.3078C18.9015 55.3078 16.567 57.6422 16.567 60.522C16.567 63.4017 18.9015 65.7361 21.7812 65.7361C22.7313 65.7361 23.6213 65.4807 24.3882 65.0368C22.8301 64.1352 21.7812 62.4515 21.7812 60.522Z" fill="#B1DBFC"/>
<path d="M38.6225 60.522C38.6225 58.5924 39.6716 56.9087 41.2296 56.0072C40.4623 55.5632 39.5726 55.3078 38.6225 55.3078C35.7428 55.3078 33.4083 57.6422 33.4083 60.522C33.4083 63.4017 35.7428 65.7361 38.6225 65.7361C39.5726 65.7361 40.4623 65.4807 41.2296 65.0368C39.6714 64.1352 38.6225 62.4515 38.6225 60.522Z" fill="#B1DBFC"/>
<path d="M55.4635 60.522C55.4635 58.5924 56.5127 56.9087 58.0706 56.0072C57.3034 55.5632 56.4134 55.3078 55.4635 55.3078C52.5838 55.3078 50.2494 57.6422 50.2494 60.522C50.2494 63.4017 52.5838 65.7361 55.4635 65.7361C56.4137 65.7361 57.3036 65.4807 58.0706 65.0368C56.5127 64.1352 55.4635 62.4515 55.4635 60.522Z" fill="#B1DBFC"/>
<path d="M72.3048 60.522C72.3048 58.5924 73.3537 56.9087 74.9119 56.0072C74.1446 55.5632 73.2547 55.3078 72.3048 55.3078C69.4251 55.3078 67.0906 57.6422 67.0906 60.522C67.0906 63.4017 69.4251 65.7361 72.3048 65.7361C73.2549 65.7361 74.1449 65.4807 74.9119 65.0368C73.3537 64.1352 72.3048 62.4515 72.3048 60.522Z" fill="#B1DBFC"/>
</svg>
