<svg width="21" height="16" viewBox="0 0 21 16" fill="none" xmlns="http://www.w3.org/2000/svg">
<g opacity="0.5">
<path d="M19.0312 15.75H1.96876C0.883133 15.75 0 14.8669 0 13.7813V10.5C0 10.1373 0.293509 9.84375 0.656253 9.84375C1.74188 9.84375 2.62501 8.96062 2.62501 7.87499C2.62501 6.78936 1.74188 5.90623 0.656253 5.90623C0.293509 5.90628 0 5.61277 0 5.25002V1.96876C0 0.883134 0.883133 0 1.96876 0H19.0312C20.1169 0 21 0.883134 21 1.96876V5.25002C21 5.61277 20.7065 5.90628 20.3437 5.90628C19.2581 5.90628 18.375 6.78941 18.375 7.87503C18.375 8.96066 19.2581 9.84379 20.3437 9.84379C20.7065 9.84379 21 10.1373 21 10.5V13.7813C21 14.8669 20.1169 15.75 19.0312 15.75ZM1.31251 11.0902V13.7813C1.31251 14.1433 1.60668 14.4375 1.96876 14.4375H19.0312C19.3933 14.4375 19.6875 14.1433 19.6875 13.7813V11.0902C18.1917 10.7852 17.0625 9.45988 17.0625 7.87499C17.0625 6.29009 18.1917 4.96482 19.6875 4.65974V1.96876C19.6875 1.60668 19.3933 1.31251 19.0312 1.31251H1.96876C1.60668 1.31251 1.31251 1.60668 1.31251 1.96876V4.65978C2.80828 4.96482 3.93752 6.29014 3.93752 7.87503C3.93752 9.45993 2.80828 10.7852 1.31251 11.0902Z" fill="black"/>
<path d="M7.91724 12.8856L11.8533 2.38935L13.0823 2.8502L9.14616 13.3465L7.91724 12.8856Z" fill="black"/>
<path d="M7.39552 8.09584C6.30989 8.09584 5.42676 7.21271 5.42676 6.12708C5.42676 5.04146 6.30989 4.15833 7.39552 4.15833C8.48114 4.15833 9.36427 5.04146 9.36427 6.12708C9.36427 7.21271 8.48114 8.09584 7.39552 8.09584ZM7.39552 5.47083C7.03344 5.47083 6.73926 5.765 6.73926 6.12708C6.73926 6.48916 7.03344 6.78333 7.39552 6.78333C7.7576 6.78333 8.05177 6.48916 8.05177 6.12708C8.05177 5.765 7.7576 5.47083 7.39552 5.47083Z" fill="black"/>
<path d="M14.179 12.1659C13.0933 12.1659 12.2102 11.2828 12.2102 10.1972C12.2102 9.11153 13.0933 8.22839 14.179 8.22839C15.2646 8.22839 16.1477 9.11153 16.1477 10.1972C16.1477 11.2828 15.2646 12.1659 14.179 12.1659ZM14.179 9.5409C13.8169 9.5409 13.5227 9.83507 13.5227 10.1972C13.5227 10.5592 13.8169 10.8534 14.179 10.8534C14.541 10.8534 14.8352 10.5592 14.8352 10.1972C14.8352 9.83507 14.541 9.5409 14.179 9.5409Z" fill="black"/>
</g>
</svg>
