<svg width="14" height="14" viewBox="0 0 14 14" fill="none" xmlns="http://www.w3.org/2000/svg">
<g clip-path="url(#clip0_2354_9380)">
<path d="M12.775 2.91634H10.5V1.16634C10.5 0.845508 10.2375 0.583008 9.91665 0.583008C9.59581 0.583008 9.33331 0.845508 9.33331 1.16634V2.91634H7.05831C6.71415 2.91634 6.44581 3.21384 6.47498 3.55801L6.54498 4.26384C8.69165 4.75967 10.5 6.28218 10.5 8.74967L10.5116 13.4163H11.5033C11.9933 13.4163 12.3958 13.0372 12.4541 12.5588L13.3525 3.55801C13.3875 3.21384 13.1191 2.91634 12.775 2.91634ZM8.74998 12.2497H1.16665C0.845813 12.2497 0.583313 12.5122 0.583313 12.833C0.583313 13.1538 0.845813 13.4163 1.16665 13.4163H8.74998C9.07081 13.4163 9.33331 13.1538 9.33331 12.833C9.33331 12.5122 9.07081 12.2497 8.74998 12.2497ZM1.22498 8.74967H8.69165C9.05331 8.74967 9.33915 8.42301 9.26915 8.07301C8.88998 6.18884 6.92415 5.24384 4.95831 5.24384C2.99248 5.24384 1.03248 6.18884 0.64748 8.07301C0.57748 8.42301 0.869146 8.74967 1.22498 8.74967ZM8.74998 9.91634H1.16665C0.845813 9.91634 0.583313 10.1788 0.583313 10.4997C0.583313 10.8205 0.845813 11.083 1.16665 11.083H8.74998C9.07081 11.083 9.33331 10.8205 9.33331 10.4997C9.33331 10.1788 9.07081 9.91634 8.74998 9.91634Z" fill="#F38422"/>
</g>
<defs>
<clipPath id="clip0_2354_9380">
<rect width="14" height="14" fill="white"/>
</clipPath>
</defs>
</svg>
