<svg width="20" height="20" viewBox="0 0 20 20" fill="none" xmlns="http://www.w3.org/2000/svg">
<path d="M16.422 0H3.57797C1.60508 0 0 1.60508 0 3.57797V16.4221C0 18.3949 1.60508 20 3.57797 20H16.4221C18.3949 20 20 18.3949 20 16.422V3.57797C20 1.60508 18.3949 0 16.422 0ZM18.8281 16.422C18.8281 17.7487 17.7487 18.8281 16.422 18.8281H3.57797C2.25125 18.8281 1.17188 17.7487 1.17188 16.422V3.57797C1.17188 2.25125 2.25125 1.17188 3.57797 1.17188H16.4221C17.7488 1.17188 18.8281 2.25125 18.8281 3.57797V16.422Z" fill="white"/>
<path d="M16.9037 4.39313H7.97944C7.73409 3.66442 7.04483 3.13794 6.23444 3.13794C5.42405 3.13794 4.7348 3.66442 4.48944 4.39313H3.09644C2.77284 4.39313 2.5105 4.65548 2.5105 4.97907C2.5105 5.30267 2.77284 5.56501 3.09644 5.56501H4.48948C4.73483 6.29372 5.42409 6.8202 6.23448 6.8202C7.04487 6.8202 7.73413 6.29372 7.97948 5.56501H16.9037C17.2273 5.56501 17.4897 5.30267 17.4897 4.97907C17.4897 4.65548 17.2273 4.39313 16.9037 4.39313V4.39313ZM6.23444 5.64833C5.86542 5.64833 5.56519 5.3481 5.56519 4.97907C5.56519 4.61005 5.86542 4.30981 6.23444 4.30981C6.60347 4.30981 6.9037 4.61005 6.9037 4.97907C6.9037 5.3481 6.60347 5.64833 6.23444 5.64833Z" fill="white"/>
<path d="M16.9037 9.41413H15.5107C15.2653 8.68542 14.576 8.15894 13.7657 8.15894C12.9553 8.15894 12.266 8.68542 12.0207 9.41413H3.09644C2.77284 9.41413 2.5105 9.67647 2.5105 10.0001C2.5105 10.3237 2.77284 10.586 3.09644 10.586H12.0207C12.266 11.3147 12.9553 11.8412 13.7657 11.8412C14.576 11.8412 15.2653 11.3147 15.5107 10.586H16.9037C17.2273 10.586 17.4897 10.3237 17.4897 10.0001C17.4897 9.67647 17.2273 9.41413 16.9037 9.41413ZM13.7657 10.6693C13.3967 10.6693 13.0964 10.3691 13.0964 10.0001C13.0964 9.63104 13.3967 9.33081 13.7657 9.33081C14.1347 9.33081 14.435 9.63104 14.435 10.0001C14.435 10.3691 14.1347 10.6693 13.7657 10.6693Z" fill="white"/>
<path d="M16.9037 14.4349H10.4899C10.2445 13.7062 9.55526 13.1797 8.74487 13.1797C7.93448 13.1797 7.24522 13.7062 6.99987 14.4349H3.09644C2.77284 14.4349 2.5105 14.6972 2.5105 15.0208C2.5105 15.3444 2.77284 15.6068 3.09644 15.6068H6.99987C7.24522 16.3355 7.93448 16.862 8.74487 16.862C9.55526 16.862 10.2445 16.3355 10.4899 15.6068H16.9037C17.2273 15.6068 17.4897 15.3444 17.4897 15.0208C17.4897 14.6972 17.2273 14.4349 16.9037 14.4349ZM8.74487 15.6901C8.37585 15.6901 8.07562 15.3899 8.07562 15.0209C8.07562 14.6518 8.37585 14.3516 8.74487 14.3516C9.1139 14.3516 9.41413 14.6518 9.41413 15.0208C9.41413 15.3898 9.1139 15.6901 8.74487 15.6901V15.6901Z" fill="white"/>
</svg>
