<svg width="22" height="20" viewBox="0 0 22 20" fill="none" xmlns="http://www.w3.org/2000/svg">
<path d="M12.26 0.624729C7.17 0.478896 3 4.73931 3 9.99973H1.21C0.76 9.99973 0.54 10.5622 0.86 10.8851L3.65 13.8018C3.85 14.0101 4.16 14.0101 4.36 13.8018L7.15 10.8851C7.46 10.5622 7.24 9.99973 6.79 9.99973H5C5 5.93723 8.18 2.65598 12.1 2.70806C15.82 2.76015 18.95 6.02056 19 9.89556C19.05 13.9685 15.9 17.2914 12 17.2914C10.39 17.2914 8.9 16.7185 7.72 15.7497C7.32 15.4268 6.76 15.4581 6.4 15.8331C5.98 16.2706 6.01 17.0101 6.48 17.3851C8 18.6351 9.91 19.3747 12 19.3747C17.05 19.3747 21.14 15.031 21 9.7289C20.87 4.84348 16.95 0.760146 12.26 0.624729ZM11.75 5.83306C11.34 5.83306 11 6.18723 11 6.61431V10.4476C11 10.8122 11.19 11.156 11.49 11.3435L14.61 13.2706C14.97 13.4893 15.43 13.3643 15.64 12.9997C15.85 12.6247 15.73 12.1456 15.38 11.9268L12.5 10.1456V6.6039C12.5 6.18723 12.16 5.83306 11.75 5.83306Z" fill="#085DA1"/>
</svg>
