<svg width="24" height="28" viewBox="0 0 24 28" fill="none" xmlns="http://www.w3.org/2000/svg">
<path d="M0 8.63864L12 4.63281L24 8.63864V27.3325H0V8.63864Z" fill="#94CF96"/>
<path d="M0 9.97458L12 5.96875L24 9.97458V25.9979H0V9.97458Z" fill="#4CAF50"/>
<path d="M9.33333 19.319C9.33333 18.9508 9.63181 18.6523 9.99999 18.6523H14C14.3682 18.6523 14.6667 18.9508 14.6667 19.319V25.9964H9.33333V19.319Z" fill="#94CF96"/>
<path d="M3.33333 19.319C3.33333 18.9508 3.63181 18.6523 3.99999 18.6523H6.66666C7.03485 18.6523 7.33333 18.9508 7.33333 19.319V21.3239C7.33333 21.6921 7.03485 21.9905 6.66666 21.9905H3.99999C3.63181 21.9905 3.33333 21.6921 3.33333 21.3239V19.319Z" fill="#94CF96"/>
<path d="M16.6667 19.319C16.6667 18.9508 16.9651 18.6523 17.3333 18.6523H20C20.3682 18.6523 20.6667 18.9508 20.6667 19.319V21.3239C20.6667 21.6921 20.3682 21.9905 20 21.9905H17.3333C16.9651 21.9905 16.6667 21.6921 16.6667 21.3239V19.319Z" fill="#94CF96"/>
<path d="M16.6667 13.9792C16.6667 13.611 16.9651 13.3125 17.3333 13.3125H20C20.3682 13.3125 20.6667 13.611 20.6667 13.9792V15.984C20.6667 16.3522 20.3682 16.6507 20 16.6507H17.3333C16.9651 16.6507 16.6667 16.3522 16.6667 15.984V13.9792Z" fill="#94CF96"/>
<path d="M10 13.9792C10 13.611 10.2985 13.3125 10.6667 13.3125H13.3333C13.7015 13.3125 14 13.611 14 13.9792V15.984C14 16.3522 13.7015 16.6507 13.3333 16.6507H10.6667C10.2985 16.6507 10 16.3522 10 15.984V13.9792Z" fill="#94CF96"/>
<path d="M3.33333 13.9792C3.33333 13.611 3.63181 13.3125 3.99999 13.3125H6.66666C7.03485 13.3125 7.33333 13.611 7.33333 13.9792V15.984C7.33333 16.3522 7.03485 16.6507 6.66666 16.6507H3.99999C3.63181 16.6507 3.33333 16.3522 3.33333 15.984V13.9792Z" fill="#94CF96"/>
<path d="M2.05752 3.46404C2.10717 3.30965 2.32335 3.30965 2.373 3.46404L2.62487 4.24721C2.64707 4.31625 2.71076 4.36299 2.78261 4.36299H3.59768C3.75835 4.36299 3.82515 4.57071 3.69517 4.66613L3.03576 5.15015C2.97763 5.19282 2.95331 5.26846 2.97551 5.3375L3.22738 6.12067C3.27703 6.27505 3.10214 6.40343 2.97215 6.30802L2.31275 5.82399C2.25462 5.78132 2.1759 5.78132 2.11777 5.82399L1.45837 6.30802C1.32839 6.40343 1.15349 6.27505 1.20314 6.12067L1.45501 5.3375C1.47722 5.26846 1.45289 5.19282 1.39476 5.15015L0.735358 4.66613C0.605374 4.57071 0.672177 4.36299 0.832846 4.36299H1.64791C1.71977 4.36299 1.78345 4.31625 1.80565 4.24721L2.05752 3.46404Z" fill="#36963B"/>
<path d="M22.2758 3.46404C22.2262 3.30965 22.01 3.30965 21.9603 3.46404L21.7085 4.24721C21.6863 4.31625 21.6226 4.36299 21.5507 4.36299H20.7357C20.575 4.36299 20.5082 4.57071 20.6382 4.66613L21.2976 5.15015C21.3557 5.19282 21.38 5.26846 21.3578 5.3375L21.106 6.12067C21.0563 6.27505 21.2312 6.40343 21.3612 6.30802L22.0206 5.82399C22.0787 5.78132 22.1574 5.78132 22.2156 5.82399L22.875 6.30802C23.005 6.40343 23.1798 6.27505 23.1302 6.12067L22.8783 5.3375C22.8561 5.26846 22.8805 5.19282 22.9386 5.15015L23.598 4.66613C23.728 4.57071 23.6612 4.36299 23.5005 4.36299H22.6854C22.6136 4.36299 22.5499 4.31625 22.5277 4.24721L22.2758 3.46404Z" fill="#36963B"/>
<path d="M7.36494 1.78836C7.41459 1.63398 7.63077 1.63398 7.68042 1.78836L7.93229 2.57153C7.95449 2.64057 8.01818 2.68732 8.09003 2.68732H8.9051C9.06577 2.68732 9.13257 2.89504 9.00258 2.99045L8.34318 3.47448C8.28505 3.51715 8.26073 3.59278 8.28293 3.66182L8.5348 4.44499C8.58445 4.59938 8.40956 4.72775 8.27957 4.63234L7.62017 4.14831C7.56204 4.10564 7.48332 4.10564 7.42519 4.14831L6.76579 4.63234C6.6358 4.72775 6.46091 4.59938 6.51056 4.44499L6.76243 3.66182C6.78463 3.59278 6.76031 3.51715 6.70218 3.47448L6.04278 2.99045C5.91279 2.89504 5.9796 2.68732 6.14026 2.68732H6.95533C7.02719 2.68732 7.09087 2.64057 7.11307 2.57153L7.36494 1.78836Z" fill="#36963B"/>
<path d="M16.9684 1.78836C16.9188 1.63398 16.7026 1.63398 16.6529 1.78836L16.4011 2.57153C16.3788 2.64057 16.3152 2.68732 16.2433 2.68732H15.4282C15.2676 2.68732 15.2008 2.89504 15.3308 2.99045L15.9902 3.47448C16.0483 3.51715 16.0726 3.59278 16.0504 3.66182L15.7985 4.44499C15.7489 4.59938 15.9238 4.72775 16.0538 4.63234L16.7132 4.14831C16.7713 4.10564 16.85 4.10564 16.9082 4.14831L17.5676 4.63234C17.6975 4.72775 17.8724 4.59938 17.8228 4.44499L17.5709 3.66182C17.5487 3.59278 17.573 3.51715 17.6312 3.47448L18.2906 2.99045C18.4206 2.89504 18.3537 2.68732 18.1931 2.68732H17.378C17.3062 2.68732 17.2425 2.64057 17.2203 2.57153L16.9684 1.78836Z" fill="#36963B"/>
<path d="M12.0089 0.447818C12.0586 0.293436 12.2748 0.293436 12.3244 0.447818L12.5763 1.23099C12.5985 1.30003 12.6622 1.34678 12.734 1.34678H13.5491C13.7098 1.34678 13.7766 1.55449 13.6466 1.64991L12.9872 2.13393C12.929 2.1766 12.9047 2.25224 12.9269 2.32128L13.1788 3.10445C13.2284 3.25883 13.0535 3.38721 12.9236 3.2918L12.2642 2.80777C12.206 2.7651 12.1273 2.7651 12.0692 2.80777L11.4098 3.2918C11.2798 3.38721 11.1049 3.25883 11.1546 3.10445L11.4064 2.32128C11.4286 2.25224 11.4043 2.1766 11.3462 2.13393L10.6868 1.64991C10.5568 1.55449 10.6236 1.34678 10.7843 1.34678H11.5993C11.6712 1.34678 11.7349 1.30003 11.7571 1.23099L12.0089 0.447818Z" fill="#36963B"/>
</svg>
