<svg width="24" height="24" viewBox="0 0 24 24" fill="none" xmlns="http://www.w3.org/2000/svg">
<path d="M9 13C11.2091 13 13 11.2091 13 9C13 6.79086 11.2091 5 9 5C6.79086 5 5 6.79086 5 9C5 11.2091 6.79086 13 9 13Z" fill="#F38422"/>
<path d="M9 14.9986C6.33 14.9986 1 16.3386 1 18.9986V19.9986C1 20.5486 1.45 20.9986 2 20.9986H16C16.55 20.9986 17 20.5486 17 19.9986V18.9986C17 16.3386 11.67 14.9986 9 14.9986ZM15.47 7.76864C15.79 8.55864 15.79 9.43864 15.47 10.2286C15.28 10.6986 15.36 11.2286 15.72 11.5886L15.75 11.6186C16.33 12.1986 17.32 12.0786 17.7 11.3486C18.46 9.89864 18.46 8.19864 17.68 6.68864C17.3 5.94864 16.3 5.80864 15.71 6.39864L15.7 6.40864C15.36 6.75864 15.28 7.29864 15.47 7.76864ZM19.18 2.88864C18.78 3.28864 18.72 3.90864 19.05 4.36864C21.02 7.10864 21.01 10.7786 19.02 13.6186C18.7 14.0686 18.77 14.6886 19.16 15.0786L19.19 15.1086C19.68 15.5986 20.51 15.5586 20.93 15.0086C23.68 11.4686 23.69 6.63864 20.93 2.98864C20.51 2.43864 19.67 2.39864 19.18 2.88864Z" fill="#F38422"/>
</svg>
