<svg width="18" height="16" viewBox="0 0 18 16" fill="none" xmlns="http://www.w3.org/2000/svg">
<path d="M8 10.79L8 9L17 9C17.55 9 18 8.55 18 8C18 7.45 17.55 7 17 7L8 7L8 5.21C8 4.76 7.46 4.54 7.15 4.86L4.36 7.65C4.16 7.85 4.16 8.16 4.36 8.36L7.15 11.15C7.46 11.46 8 11.24 8 10.79ZM1 -7.43094e-07C0.450001 -7.67135e-07 -1.96701e-08 0.449999 -4.37114e-08 0.999999L-6.55671e-07 15C-6.79712e-07 15.55 0.45 16 0.999999 16C1.55 16 2 15.55 2 15L2 0.999999C2 0.449999 1.55 -7.19052e-07 1 -7.43094e-07Z" fill="#F44336"/>
</svg>
