<svg width="25" height="24" viewBox="0 0 25 24" fill="none" xmlns="http://www.w3.org/2000/svg">
<path d="M0.666672 6H2.00001L5.66667 11.6667H2.00001L0.666672 6Z" fill="#106CB4"/>
<path d="M0.666672 18H2.00001L5.66667 12.3333H2.00001L0.666672 18Z" fill="#106CB4"/>
<path d="M8.66667 0H11.4222L19.6667 11.6667H12.0889L8.66667 0Z" fill="#03A9F4"/>
<path d="M8.66667 0H10.0889L14 11.6667H12.0889L8.66667 0Z" fill="#0095E0"/>
<path d="M8.66667 24H11.4222L19.6667 12.3333H12.0889L8.66667 24Z" fill="#03A9F4"/>
<path d="M8.66667 24H10.0889L14 12.3333H12.0889L8.66667 24Z" fill="#0095E0"/>
<path d="M2 11.3333C2 11.3333 6.66667 10 9.5 10H22.3333C25 10 25 11.8333 25 12C25 12.1667 25 14 22.3333 14H9.5C6.66667 14 2 12.6667 2 12.6667V11.3333Z" fill="#03A9F4"/>
</svg>
