<svg width="24" height="26" viewBox="0 0 24 26" fill="none" xmlns="http://www.w3.org/2000/svg">
<path d="M1.33333 22.6641H4.66666V24.9974C4.66666 25.5497 4.21895 25.9974 3.66666 25.9974H2.33333C1.78104 25.9974 1.33333 25.5497 1.33333 24.9974V22.6641Z" fill="#123936"/>
<path d="M19.3333 22.6641H22.6667V24.9974C22.6667 25.5497 22.2189 25.9974 21.6667 25.9974H20.3333C19.781 25.9974 19.3333 25.5497 19.3333 24.9974V22.6641Z" fill="#123936"/>
<path d="M6.99346 9.33203C6.28622 9.33203 5.5922 9.602 5.17358 10.172C3.28272 12.7468 2.62964 16.6654 2.62964 16.6654H21.3704C21.3704 16.6654 20.7173 12.7468 18.8264 10.172C18.4078 9.602 17.7138 9.33203 17.0066 9.33203H6.99346Z" fill="#009688"/>
<path d="M0 16.332C0 15.7798 0.447673 15.332 1 15.332H3.33333V16.2385C5.58634 16.1399 9.28711 15.9987 12 15.9987C14.7129 15.9987 18.4137 16.1399 20.6667 16.2385V15.332H23C23.5523 15.332 24 15.7798 24 16.332V16.9987C24 17.551 23.5522 17.9987 23 17.9987H22.6667V23.332C22.6667 23.7002 22.3682 23.9987 22 23.9987H2C1.63184 23.9987 1.33333 23.7002 1.33333 23.332V17.9987H1C0.447754 17.9987 0 17.551 0 16.9987V16.332Z" fill="#009688"/>
<path d="M7.55227 10.6641C7.19866 10.6641 6.85423 10.8003 6.62999 11.0738C4.91689 13.1627 4.33333 16.6641 4.33333 16.6641C4.33333 16.6641 9.00315 16.3307 12 16.3307C14.9968 16.3307 19.6667 16.6641 19.6667 16.6641C19.6667 16.6641 19.0831 13.1627 17.37 11.0738C17.1458 10.8003 16.8013 10.6641 16.4477 10.6641H7.55227Z" fill="white"/>
<path d="M2.66667 18.6667C2.66667 18.2985 2.96515 18 3.33334 18L20.6667 18C21.0349 18 21.3333 18.2985 21.3333 18.6667V20.6667C21.3333 21.0349 21.0349 21.3333 20.6667 21.3333H3.33334C2.96515 21.3333 2.66667 21.0349 2.66667 20.6667V18.6667Z" fill="#056A59"/>
<path d="M3.66667 19.6562C3.66667 19.1125 4.10739 18.6641 4.65105 18.6641L4.66668 18.6641C5.21896 18.6641 5.66667 19.1118 5.66667 19.6641C5.66667 20.2164 5.21896 20.6641 4.66667 20.6641C4.11439 20.6641 3.66667 20.2085 3.66667 19.6562Z" fill="white"/>
<path d="M18.3333 19.6562C18.3333 19.1125 18.774 18.6641 19.3177 18.6641L19.3333 18.6641C19.8856 18.6641 20.3333 19.1118 20.3333 19.6641C20.3333 20.2164 19.8856 20.6641 19.3333 20.6641C18.781 20.6641 18.3333 20.2085 18.3333 19.6562Z" fill="white"/>
<path d="M10.6667 2H12.6667V3.33333L14 2H15.3333V3.33333L16.5834 2H18.3333L19 2.33333L19.6667 2.66667V4L18.3333 4.66667H10.6667V2Z" fill="#F9A825"/>
<path d="M10.6667 2V4.66667H12.6667V2H10.6667Z" fill="#E59411"/>
<path fill-rule="evenodd" clip-rule="evenodd" d="M8 6.66667C9.84095 6.66667 11.3333 5.17428 11.3333 3.33333C11.3333 1.49238 9.84095 0 8 0C6.15906 0 4.66667 1.49238 4.66667 3.33333C4.66667 5.17428 6.15906 6.66667 8 6.66667ZM6.66667 4C7.03486 4 7.33334 3.70152 7.33334 3.33333C7.33334 2.96514 7.03486 2.66667 6.66667 2.66667C6.29848 2.66667 6 2.96514 6 3.33333C6 3.70152 6.29848 4 6.66667 4Z" fill="#F9A825"/>
</svg>
