<svg width="224" height="147" viewBox="0 0 224 147" fill="none" xmlns="http://www.w3.org/2000/svg">
<path d="M103.855 0.231323C99.3092 0.643593 93.1101 1.40923 91.0142 1.85094C89.8924 2.08652 88.0327 2.46934 86.8814 2.70492C82.8077 3.5589 80.6823 4.05952 80.0919 4.35399C79.7672 4.50123 78.9111 4.76626 78.2027 4.94294C77.0219 5.26687 74.0699 6.20919 70.4981 7.44598C69.2878 7.85825 67.6642 8.5061 65.3321 9.50732C63.5609 10.2729 54.6755 14.6901 53.3176 15.4557C49.0373 17.9882 46.5281 19.5195 44.019 21.2863C42.0116 22.6704 37.1999 26.3513 36.521 26.9992C36.2848 27.2642 35.1926 28.1771 34.1594 29.0311C32.5063 30.3562 24.5951 38.2187 22.8239 40.3095C19.9015 43.7254 17.0381 47.5241 14.5289 51.264C13.3186 53.0897 12.2264 54.7093 12.0492 54.9155C11.9016 55.1216 11.754 55.3277 11.754 55.4161C11.754 55.5044 9.80575 58.9792 8.50689 61.1878C7.68034 62.6013 3.78375 70.7877 3.78375 71.1116C3.78375 71.465 4.66934 70.2576 5.64349 68.5497C14.1747 53.8259 27.6946 40.6923 43.7828 31.5341C46.8824 29.7672 53.0224 26.8519 56.9486 25.2912C65.2731 22.0225 73.5976 19.9612 84.8151 18.4299C88.0032 17.9882 104.239 17.9882 107.25 18.4299C117.788 19.9612 121.095 20.6974 128.799 23.1121C130.6 23.6716 132.165 24.2605 132.312 24.3783C132.43 24.4961 131.574 25.2618 130.393 26.0274C125.552 29.1488 118.084 34.1549 116.106 35.5979C115.456 36.0985 113.656 37.3942 112.121 38.5132C106.778 42.4002 105.833 43.107 102.409 45.8162C100.519 47.2885 98.6893 48.7609 98.3055 49.0554C97.9218 49.3204 97.3904 49.7621 97.1247 49.9977C96.8295 50.2333 95.0288 51.7646 93.0806 53.3842C74.6603 68.6969 56.801 88.0734 44.5798 106.007C42.8087 108.569 39.532 113.604 39.0302 114.488C38.794 114.9 38.3512 115.607 38.056 116.108C36.4029 118.758 33.0967 124.677 33.2148 124.795C33.2738 124.853 34.3661 123.793 35.6059 122.439C38.735 118.993 51.1627 106.625 54.4099 103.71C60.5499 98.2034 71.236 89.3986 74.6013 87.1017C74.9555 86.8661 76.1658 85.9826 77.2876 85.1876C78.3798 84.363 79.5901 83.509 79.9443 83.2735C80.2986 83.0379 80.889 82.6256 81.2432 82.3606C83.1324 80.9471 94.4385 73.5558 95.2945 73.173C95.5307 73.0552 96.3277 72.584 97.0657 72.0834C97.8037 71.6122 99.9586 70.346 101.877 69.227C103.796 68.1374 105.863 66.9301 106.453 66.5767C107.043 66.2233 108.077 65.6638 108.726 65.3399C109.375 65.016 111.648 63.8086 113.744 62.6896C118.438 60.1571 131.899 53.5314 132.342 53.5314C132.401 53.5314 133.552 53.0014 134.91 52.383C136.268 51.7351 138.364 50.7928 139.574 50.2922C140.784 49.7621 142.349 49.0848 143.028 48.7904C143.707 48.4664 144.356 48.2309 144.445 48.2309C144.563 48.2309 145.065 48.0542 145.566 47.8186C147.692 46.8468 149.67 46.0517 153.596 44.5205C157.728 42.9009 159.027 42.4002 162.599 41.0751C163.662 40.6628 165.404 40.015 166.496 39.5733C167.559 39.161 168.651 38.8076 168.857 38.8076C169.094 38.8076 169.389 38.6898 169.566 38.5426C169.713 38.3954 170.51 38.0715 171.307 37.8359C172.134 37.5708 173.728 37.0408 174.85 36.6285C176.001 36.1868 180.163 34.7733 184.149 33.4482C188.134 32.123 191.528 30.9157 191.676 30.7979C191.853 30.6212 191.765 30.3562 191.381 30.0912C191.056 29.8556 190.318 29.2077 189.757 28.6777C187.1 26.1746 180.016 20.9919 174.407 17.4287C169.95 14.6017 161.802 10.5674 156.105 8.32941C144.356 3.76504 134.024 1.40923 120.239 0.231323C116.785 -0.092598 107.457 -0.0631485 103.855 0.231323Z" fill="#1C71B5"/>
<path d="M190.938 41.0439C177.743 45.5494 173.226 47.1396 172.193 47.6107C171.868 47.758 171.012 48.0819 170.274 48.3469C169.536 48.5825 168.031 49.142 166.88 49.5543C165.758 49.996 164.282 50.5261 163.632 50.7616C162.983 50.9972 162.186 51.3211 161.861 51.4684C161.182 51.7923 158.585 52.7935 156.843 53.4119C156.193 53.6475 155.278 54.0303 154.777 54.2659C154.304 54.472 152.71 55.1493 151.234 55.7383C149.788 56.3567 147.839 57.1223 146.954 57.5051C144.563 58.4769 140.637 60.2143 137.95 61.4806C133.168 63.748 131.633 64.4253 131.308 64.4253C131.161 64.4253 131.013 64.5431 131.013 64.7198C131.013 64.867 130.866 65.0143 130.689 65.0143C130.305 65.0143 122.098 69.0191 119.205 70.6387C118.143 71.2277 115.84 72.4645 114.039 73.4068C112.268 74.3197 110.586 75.2915 110.32 75.4976C110.084 75.7332 109.7 75.9099 109.523 75.9099C109.346 75.9099 109.021 76.0865 108.815 76.2632C108.608 76.4694 107.929 76.9111 107.339 77.235C104.446 78.7957 100.874 80.9454 99.8701 81.711C99.7225 81.8583 98.7188 82.4767 97.6561 83.0951C95.8849 84.1846 89.9515 88.1306 87.1766 90.1036C86.5272 90.5748 85.6711 91.1637 85.2579 91.4582C84.4313 92.0177 79.9443 95.3747 78.734 96.3465C78.2912 96.6999 77.5828 97.2299 77.14 97.5538C75.7525 98.5256 69.6125 103.561 66.9557 105.887C54.2032 117.019 40.5357 131.625 31.8274 143.433C30.7647 144.876 29.4363 146.643 28.8459 147.409C24.3294 153.298 16.6838 165.254 10.957 175.443C7.56227 181.45 -0.230907 196.88 0.00524956 197.116C0.0938084 197.175 2.07162 194.878 4.40367 192.022C6.73572 189.136 9.68768 185.602 10.9865 184.13C15.8278 178.594 16.6838 177.622 18.2484 175.884C24.0637 169.524 33.8347 159.835 39.9158 154.388C41.3622 153.092 42.7792 151.826 43.0744 151.531C43.34 151.266 45.2293 149.705 47.2366 148.027C49.2144 146.378 51.0151 144.876 51.1922 144.699C51.517 144.375 51.8417 144.14 56.2401 140.695C58.6312 138.839 61.5831 136.572 62.8525 135.688C63.1772 135.453 63.8266 134.982 64.2399 134.628C65.3616 133.774 68.6088 131.536 72.4168 129.004C74.2175 127.826 75.8116 126.736 75.9592 126.619C76.1363 126.501 77.1105 125.853 78.1732 125.235C80.5642 123.762 82.0697 122.82 82.4535 122.496C82.6306 122.378 84.1361 121.465 85.8483 120.523C87.5604 119.551 89.0069 118.697 89.0954 118.579C89.184 118.462 89.7153 118.167 90.2762 117.902C90.8371 117.637 92.3721 116.813 93.671 116.106C97.7447 113.809 109.7 107.949 114.925 105.652C115.575 105.357 116.873 104.768 117.788 104.356C118.704 103.944 119.56 103.591 119.648 103.591C119.766 103.591 120.268 103.414 120.77 103.178C125.08 101.235 139.456 96.0815 146.068 94.1085C152.504 92.1944 158.762 90.5159 164.518 89.1613C165.817 88.8668 167.411 88.484 168.06 88.3073C174.141 86.7466 189.078 84.1552 199.351 82.83C201.299 82.5945 204.488 82.1822 206.436 81.9466C208.384 81.6816 212.517 81.2693 215.587 81.0337C223.469 80.3564 224 80.2976 224 80.0325C224 79.5614 222.17 74.3491 221.137 71.8167C220.546 70.4326 219.867 68.6952 219.572 67.959C218.893 66.2511 214.288 57.2695 213.343 55.7972C210.893 51.9395 207.026 46.1973 205.816 44.6365C203.986 42.2513 200.266 37.9225 200.089 37.9519C200.001 37.9814 195.897 39.3654 190.938 41.0439Z" fill="#1C71B5"/>
</svg>
