<svg width="20" height="30" viewBox="0 0 20 30" fill="none" xmlns="http://www.w3.org/2000/svg">
<path d="M4.5 0H15.5C16.3284 0 17 0.671573 17 1.5V2.33333H15.6667V1.33333H14.3337L12.8729 4.46596L11.9666 4.04334L13.2303 1.33333H7.00806L8.27167 4.04315L7.36536 4.46577L5.90468 1.33333H4.33333V2.33333H3V1.5C3 0.671573 3.67157 0 4.5 0Z" fill="#A7B0B4"/>
<path d="M4.33333 25.0003L5.48803 25.667L3.55984 29.0418L2 29.0418L4.33333 25.0003Z" fill="#A7B0B4"/>
<path d="M15.5032 25.0003L14.3485 25.667L16.2767 29.0418L17.8365 29.0418L15.5032 25.0003Z" fill="#A7B0B4"/>
<path d="M0.666672 6.66536V15.9987H19.3333V6.66536C19.3333 4.82442 17.841 3.33203 16 3.33203H4.00001C2.15906 3.33203 0.666672 4.82442 0.666672 6.66536Z" fill="#CFD8DC"/>
<path d="M13.3333 5.9974H6.66667C6.29848 5.9974 6 5.69892 6 5.33073C6 4.96254 6.29848 4.66406 6.66667 4.66406H13.3333C13.7015 4.66406 14 4.96254 14 5.33073C14 5.69892 13.7015 5.9974 13.3333 5.9974Z" fill="#A7B0B4"/>
<path d="M6.66667 14.6654V7.33203H13.3333V14.6654H6.66667Z" fill="#455A64"/>
<path d="M14.6667 14.6654V7.33203H16.6667C17.4031 7.33203 18 7.92899 18 8.66536V13.332C18 14.0684 17.4031 14.6654 16.6667 14.6654H14.6667Z" fill="#455A64"/>
<path d="M5.33333 14.6654V7.33203H3.33333C2.59695 7.33203 2 7.92899 2 8.66536V13.332C2 14.0684 2.59695 14.6654 3.33333 14.6654H5.33333Z" fill="#455A64"/>
<path d="M0.666672 24.6667V16H19.3333V24.6667C19.3333 25.403 18.7364 26 18 26H2.00001C1.26363 26 0.666672 25.403 0.666672 24.6667Z" fill="#F38422"/>
<path d="M6 24.668V22.668H14V24.668H6Z" fill="#86440A"/>
<path d="M10 16.668C11.4728 16.668 12.6667 17.8619 12.6667 19.3346C12.6667 20.8074 11.4728 22.0013 10 22.0013C8.52725 22.0013 7.33334 20.8074 7.33334 19.3346C7.33334 17.8619 8.52725 16.668 10 16.668Z" fill="#DF700E"/>
<path d="M10 18C10.7364 18 11.3333 18.597 11.3333 19.3333C11.3333 20.0697 10.7364 20.6667 10 20.6667C9.26363 20.6667 8.66667 20.0697 8.66667 19.3333C8.66667 18.597 9.26363 18 10 18Z" fill="white"/>
</svg>
