<svg width="10" height="10" viewBox="0 0 10 10" fill="none" xmlns="http://www.w3.org/2000/svg">
<path d="M6.325 1.49048L3.825 0.615485C3.615 0.540485 3.385 0.540485 3.175 0.610485L1.18 1.28048C0.775 1.42048 0.5 1.80048 0.5 2.23048V8.15548C0.5 8.86048 1.205 9.34048 1.86 9.08548L3.325 8.51548C3.435 8.47048 3.56 8.47048 3.67 8.51048L6.17 9.38548C6.38 9.46048 6.61 9.46048 6.82 9.39048L8.815 8.72048C9.22 8.58548 9.495 8.20048 9.495 7.77048V1.84548C9.495 1.14048 8.79 0.660485 8.135 0.915485L6.67 1.48548C6.56 1.52548 6.44 1.53048 6.325 1.49048ZM6.5 8.44548L3.5 7.39048V1.55548L6.5 2.61048V8.44548Z" fill="#F38422"/>
</svg>
