<svg width="15" height="12" viewBox="0 0 15 12" fill="none" xmlns="http://www.w3.org/2000/svg">
<path d="M1.78814 7.50342C1.65901 7.56591 1.60204 7.72323 1.65958 7.85769L2.24942 9.16371C2.2784 9.22874 2.33126 9.27938 2.39628 9.30435C2.42477 9.31502 2.45498 9.32053 2.48535 9.32053C2.52336 9.32087 2.56088 9.31248 2.59544 9.29631L7.05192 7.14931L6.64827 11.5025C6.64047 11.5882 6.67249 11.6724 6.73463 11.7297C6.93001 11.8965 7.1735 11.9915 7.42684 12C7.4967 12 7.56615 11.9909 7.63387 11.9731C7.99566 11.8757 8.27617 11.5432 8.46752 10.9753L10.2213 5.61899L13.6946 3.94786C14.717 3.45582 15.2439 2.4581 14.89 1.67936C14.6892 1.27233 14.3046 0.995441 13.865 0.941165C13.3766 0.865128 12.8774 0.944383 12.4337 1.16843L8.42549 3.10705L4.11596 1.36843C3.57324 1.15759 3.14341 1.16301 2.84196 1.38748C2.58904 1.60154 2.44513 1.9233 2.45128 2.26073C2.45391 2.34633 2.4957 2.4255 2.564 2.47445L5.46589 4.53203L3.80401 5.34321L1.01729 4.61306C0.903099 4.5841 0.784229 4.6372 0.726353 4.74287L0.0317675 6.03254C-0.00427115 6.10087 -0.00993554 6.18199 0.016252 6.25498C0.0422754 6.32805 0.0976058 6.38589 0.168123 6.41383L2.23119 7.29266L1.78814 7.50342ZM2.98858 2.12559C3.00401 2.01128 3.06008 1.90721 3.14595 1.83355C3.29544 1.72262 3.56807 1.73888 3.9324 1.87944L7.77023 3.42339L6.01903 4.267L2.98858 2.12559ZM0.629402 6.02992L1.08551 5.19444L3.76723 5.88114C3.82502 5.89622 3.88602 5.89054 3.94036 5.86506L12.6566 1.66589C13.0031 1.4896 13.3934 1.42542 13.776 1.48198C14.0442 1.50747 14.2832 1.66716 14.4156 1.90916C14.6356 2.39595 14.2032 3.10705 13.4717 3.45853L10.4519 4.91874L10.6354 4.35887C10.6818 4.21484 10.606 4.05921 10.4664 4.01145C10.3266 3.9637 10.1758 4.04185 10.1295 4.18588L7.97201 10.8076C7.84354 11.1835 7.68362 11.408 7.5054 11.4565C7.39498 11.4784 7.28071 11.4561 7.18557 11.3945L7.70989 5.7162C7.7236 5.56692 7.61745 5.4344 7.47256 5.42026C7.32783 5.40595 7.19936 5.51561 7.18557 5.66489L7.10438 6.5328L2.60586 8.69589L2.23645 7.88471L2.97553 7.52789C3.07067 7.48462 3.132 7.38758 3.132 7.28047C3.132 7.17327 3.07067 7.07624 2.97553 7.03305L0.629402 6.02992Z" fill="black"/>
</svg>
