<svg width="15" height="20" viewBox="0 0 15 20" fill="none" xmlns="http://www.w3.org/2000/svg">
<g opacity="0.5">
<path d="M2.7041 3.47339V7.67913C2.7041 9.9263 3.18969 11.7181 4.18862 13.157C4.93764 14.236 5.99456 15.1808 7.50017 16.114C9.00579 15.1808 10.0627 14.236 10.8117 13.157C11.8107 11.7181 12.2962 9.9263 12.2962 7.67913V3.47339H2.7041ZM8.60357 9.2001V12.2255H6.39674V9.2001C5.85711 8.84212 5.50111 8.2294 5.50111 7.53335C5.50115 6.42931 6.39613 5.53432 7.50017 5.53432C8.60422 5.53432 9.4992 6.42931 9.4992 7.53335C9.4992 8.22944 9.1432 8.84216 8.60357 9.2001Z" fill="black" fill-opacity="0.5"/>
<path d="M0 0.769287V7.67901C0 10.4959 0.643517 12.7921 1.96729 14.6989C3.11954 16.3587 4.79528 17.7537 7.2408 19.0892L7.50002 19.2307L7.7592 19.0892C10.2048 17.7537 11.8805 16.3588 13.0327 14.6989C14.3565 12.7921 15 10.4959 15 7.67901V0.769287H0ZM13.3777 7.67901C13.3777 10.154 12.8289 12.1476 11.7001 13.7738C10.815 15.0486 9.56852 16.1409 7.77744 17.2112L7.50005 17.3769L7.22266 17.2112C5.43151 16.1409 4.18511 15.0487 3.30005 13.7737C2.17116 12.1477 1.6224 10.1541 1.6224 7.67901V2.39166H13.3777V7.67901H13.3777Z" fill="black" fill-opacity="0.3"/>
</g>
</svg>
