<svg width="15" height="17" viewBox="0 0 15 17" fill="none" xmlns="http://www.w3.org/2000/svg">
<g opacity="0.5">
<path d="M7.49915 16.9043L9.19415 16.5131L7.89027 15.2093L7.49915 16.9043Z" fill="black" fill-opacity="0.3"/>
<path d="M7.16465 15.7877L7.4451 14.5724C7.44579 14.5694 7.4468 14.5666 7.44759 14.5637C7.44893 14.5587 7.45026 14.5536 7.45185 14.5487C7.45343 14.5438 7.45502 14.5396 7.45672 14.5351C7.45841 14.5307 7.45989 14.5267 7.46169 14.5226C7.46382 14.5176 7.46616 14.5128 7.46854 14.5081C7.47031 14.5045 7.47215 14.5011 7.47399 14.4977C7.47677 14.4926 7.47972 14.4878 7.48275 14.483C7.4847 14.4799 7.48665 14.4769 7.4887 14.4739C7.49202 14.469 7.49552 14.4644 7.49912 14.4598C7.50132 14.457 7.50352 14.4542 7.50583 14.4514C7.50944 14.447 7.51351 14.4427 7.51748 14.4385C7.5191 14.4368 7.52054 14.4349 7.5222 14.4333L11.3016 10.6539C10.2465 8.48364 8.29547 7.19196 6.05677 7.19196C4.41518 7.19196 2.89858 7.89461 1.78634 9.17047C0.666199 10.4554 0.0350157 12.2465 0 14.2296C0.662233 14.5635 3.38145 15.8467 6.05677 15.8467C6.42684 15.8461 6.79662 15.8264 7.16465 15.7877Z" fill="black" fill-opacity="0.5"/>
<path d="M8.13184 14.637L12.619 10.1498L14.2507 11.7815L9.76354 16.2687L8.13184 14.637Z" fill="black" fill-opacity="0.3"/>
<path d="M6.05679 6.61499C7.65009 6.61499 8.94171 5.32337 8.94171 3.73007C8.94171 2.13677 7.65009 0.845154 6.05679 0.845154C4.4635 0.845154 3.17188 2.13677 3.17188 3.73007C3.17188 5.32337 4.4635 6.61499 6.05679 6.61499Z" fill="black" fill-opacity="0.5"/>
<path d="M15 10.5574C14.9999 10.3292 14.9322 10.1061 14.8054 9.91634C14.6786 9.72659 14.4984 9.57871 14.2875 9.49138C14.0767 9.40406 13.8447 9.38121 13.6208 9.42574C13.397 9.47027 13.1914 9.58017 13.03 9.74154L14.662 11.3735C14.7695 11.2666 14.8547 11.1394 14.9127 10.9993C14.9707 10.8592 15.0004 10.709 15 10.5574Z" fill="black" fill-opacity="0.3"/>
</g>
</svg>
