<svg width="12" height="12" viewBox="0 0 12 12" fill="none" xmlns="http://www.w3.org/2000/svg">
<path d="M3.72498 6.78201L5.37581 5.13117L1.76498 1.52617C1.48498 1.24617 1.00081 1.32201 0.825814 1.68367C0.411648 2.55284 0.563314 3.62034 1.28081 4.34367L3.72498 6.78201ZM7.67998 5.72617C8.57248 6.14034 9.82665 5.84867 10.7541 4.92117C11.8683 3.80701 12.0841 2.20867 11.2266 1.35117C10.375 0.499508 8.77665 0.709508 7.65665 1.82367C6.72915 2.75117 6.43748 4.00534 6.85165 4.89784L1.56665 10.1828C1.33915 10.4103 1.33915 10.7778 1.56665 11.0053C1.79415 11.2328 2.16165 11.2328 2.38915 11.0053L5.99998 7.40617L9.60498 11.0112C9.83248 11.2387 10.2 11.2387 10.4275 11.0112C10.655 10.7837 10.655 10.4162 10.4275 10.1887L6.82248 6.58367L7.67998 5.72617Z" fill="#F38422"/>
</svg>
