<svg width="15" height="15" viewBox="0 0 15 15" fill="none" xmlns="http://www.w3.org/2000/svg">
<g opacity="0.5">
<path d="M13.2886 6.77391C13.2444 6.22424 13.1234 5.68948 12.9272 5.17699L14.279 4.09433L12.0824 1.35149L10.7388 2.42742C10.2749 2.11494 9.77326 1.87365 9.24114 1.7073V0H5.72695V1.71844C5.17055 1.8965 4.64839 2.15684 4.16754 2.49565L2.80989 1.44053L0.65335 4.21526L2.03502 5.28885C1.85054 5.80251 1.7407 6.33665 1.70704 6.8843L0 7.29281L0.817647 10.7104L2.01861 10.4231C2.61021 9.83147 3.14429 9.29739 3.84656 8.59512C2.91313 6.06179 4.78966 3.3537 7.50249 3.3537C9.65347 3.3537 11.3974 5.09763 11.3974 7.24857C11.3974 9.90524 8.7905 11.7811 6.27691 10.9464C6.07614 11.1471 3.99604 13.2272 3.67289 13.5504L5.99021 14.6427L6.76099 13.0075C7.2934 13.076 7.82461 13.0704 8.34677 12.9943L9.13629 14.6079L12.2929 13.0634L11.5054 11.4539C11.8955 11.0829 12.23 10.6626 12.5032 10.1991L14.2325 10.5862L15 7.15693L13.2886 6.77391Z" fill="black" fill-opacity="0.5"/>
<path d="M9.9987 6.23924L9.75211 5.61899L8.26825 7.10256L7.60172 6.43602L9.08558 4.95246L8.46533 4.70558C6.03759 3.73992 3.79315 6.39598 5.06713 8.61685C1.78983 11.8942 4.59064 9.09366 0.65332 13.031L1.80158 14.1792C4.08882 11.892 1.86715 14.114 6.25641 9.72471C8.497 10.8113 10.9229 8.56113 9.9987 6.23924Z" fill="black" fill-opacity="0.3"/>
</g>
</svg>
