<svg width="21" height="20" viewBox="0 0 21 20" fill="none" xmlns="http://www.w3.org/2000/svg">
<path d="M20.0069 17.16H11.4365C11.0422 17.16 10.7223 17.48 10.7223 17.875C10.7223 18.2699 11.0422 18.5898 11.4365 18.5898L20.0069 18.5691C20.4011 18.5691 20.7211 18.2699 20.7211 17.875C20.721 17.48 20.4018 17.16 20.0069 17.16ZM10.0081 1.42984L20.0069 1.42841C20.4011 1.42841 20.7211 1.10989 20.7211 0.714918C20.7211 0.319946 20.4011 0 20.0069 0H10.0081C9.61383 0 9.29389 0.319946 9.29389 0.714918C9.29389 1.10989 9.61383 1.42984 10.0081 1.42984ZM11.213 13.072C10.933 12.7906 10.4787 12.7906 10.1988 13.072L6.43709 17.4007V0H5.00871V17.4264L1.22414 13.072C0.944179 12.7906 0.489924 12.7906 0.209996 13.072C-0.0699987 13.3534 -0.0699987 13.809 0.209996 14.0897L5.16794 19.7954C5.31721 19.9454 5.51575 20.009 5.71073 19.999C5.90639 20.009 6.10425 19.9454 6.25349 19.7954L11.2115 14.0897C11.4929 13.809 11.4929 13.3534 11.213 13.072ZM20.0069 4.29019H10.0081C9.61383 4.29019 9.29389 4.61017 9.29389 5.0051C9.29389 5.40008 9.61383 5.71359 10.0081 5.71359H20.0069C20.4011 5.71359 20.7211 5.40004 20.7211 5.0051C20.721 4.61017 20.4018 4.29019 20.0069 4.29019ZM20.0069 8.57966H10.0081C9.61383 8.57966 9.29389 8.89964 9.29389 9.29458C9.29389 9.68955 9.61383 9.99805 10.0081 9.99805L20.0069 10.0095C20.4011 10.0095 20.7211 9.68952 20.7211 9.29458C20.721 8.90035 20.4018 8.57966 20.0069 8.57966ZM20.0069 12.8698H14.2933C13.899 12.8698 13.5791 13.1898 13.5791 13.5847C13.5791 13.9797 13.899 14.2839 14.2933 14.2839H20.0069C20.4011 14.2839 20.7211 13.9797 20.7211 13.5847C20.721 13.1898 20.4018 12.8698 20.0069 12.8698Z" fill="white"/>
</svg>
