<svg width="15" height="15" viewBox="0 0 15 15" fill="none" xmlns="http://www.w3.org/2000/svg">
<g opacity="0.5">
<path d="M15 10.1513C15 8.28997 13.9321 6.62875 12.3328 5.82068C12.2832 9.38963 9.38963 12.2832 5.82068 12.3328C6.62875 13.9321 8.28997 15 10.1513 15C11.0241 15 11.8728 14.7675 12.6185 14.3259L14.9788 14.9788L14.3259 12.6185C14.7675 11.8728 15 11.0241 15 10.1513Z" fill="black" fill-opacity="0.3"/>
<path d="M11.4551 5.72753C11.4551 2.56931 8.88576 0 5.72753 0C2.56931 0 0 2.56931 0 5.72753C0 6.75682 0.273971 7.75897 0.794219 8.63879L0.0210571 11.4339L2.81627 10.6608C3.6961 11.1811 4.69825 11.4551 5.72753 11.4551C8.88576 11.4551 11.4551 8.88576 11.4551 5.72753ZM4.84863 4.39453H3.96972C3.96972 3.42521 4.75822 2.63672 5.72753 2.63672C6.69685 2.63672 7.48535 3.42521 7.48535 4.39453C7.48535 4.88651 7.27706 5.35938 6.91371 5.69171L6.16699 6.37516V7.06054H5.28808V5.98812L6.32034 5.04329C6.50482 4.87449 6.60644 4.64412 6.60644 4.39453C6.60644 3.90987 6.21219 3.51562 5.72753 3.51562C5.24288 3.51562 4.84863 3.90987 4.84863 4.39453ZM5.28808 7.93945H6.16699V8.81835H5.28808V7.93945Z" fill="black" fill-opacity="0.5"/>
</g>
</svg>
