<svg width="13" height="18" viewBox="0 0 13 18" fill="none" xmlns="http://www.w3.org/2000/svg">
<g opacity="0.5">
<path d="M9.20833 1.41659H8.03183C7.80867 0.786085 7.20633 0.333252 6.5 0.333252C5.79367 0.333252 5.19133 0.786085 4.96708 1.41659H3.79167C3.49267 1.41659 3.25 1.65925 3.25 1.95825V4.12492C3.25 4.42392 3.49267 4.66659 3.79167 4.66659H9.20833C9.50733 4.66659 9.75 4.42392 9.75 4.12492V1.95825C9.75 1.65925 9.50733 1.41659 9.20833 1.41659Z" fill="black" fill-opacity="0.3"/>
<path d="M11.9167 2.49988H10.8333V4.12488C10.8333 5.02079 10.1042 5.74988 9.20833 5.74988H3.79167C2.89575 5.74988 2.16667 5.02079 2.16667 4.12488V2.49988H1.08333C0.486417 2.49988 0 2.98629 0 3.58321V16.5832C0 17.191 0.475583 17.6665 1.08333 17.6665H11.9167C12.5244 17.6665 13 17.191 13 16.5832V3.58321C13 2.97546 12.5244 2.49988 11.9167 2.49988ZM6.34183 12.0917L4.17517 14.2584C4.069 14.3635 3.93033 14.4165 3.79167 14.4165C3.653 14.4165 3.51433 14.3635 3.40817 14.2584L2.32483 13.175C2.11358 12.9638 2.11358 12.6204 2.32483 12.4091C2.53608 12.1979 2.8795 12.1979 3.09075 12.4091L3.79167 13.109L5.57483 11.3258C5.78608 11.1145 6.1295 11.1145 6.34075 11.3258C6.552 11.537 6.55308 11.8794 6.34183 12.0917ZM6.34183 7.75838L4.17517 9.92505C4.069 10.0301 3.93033 10.0832 3.79167 10.0832C3.653 10.0832 3.51433 10.0301 3.40817 9.92505L2.32483 8.84171C2.11358 8.63046 2.11358 8.28704 2.32483 8.07579C2.53608 7.86454 2.8795 7.86454 3.09075 8.07579L3.79167 8.77563L5.57483 6.99246C5.78608 6.78121 6.1295 6.78121 6.34075 6.99246C6.552 7.20371 6.55308 7.54604 6.34183 7.75838ZM10.2917 13.3332H8.125C7.826 13.3332 7.58333 13.0905 7.58333 12.7915C7.58333 12.4925 7.826 12.2499 8.125 12.2499H10.2917C10.5907 12.2499 10.8333 12.4925 10.8333 12.7915C10.8333 13.0905 10.5907 13.3332 10.2917 13.3332ZM10.2917 8.99988H8.125C7.826 8.99988 7.58333 8.75721 7.58333 8.45821C7.58333 8.15921 7.826 7.91654 8.125 7.91654H10.2917C10.5907 7.91654 10.8333 8.15921 10.8333 8.45821C10.8333 8.75721 10.5907 8.99988 10.2917 8.99988Z" fill="black" fill-opacity="0.5"/>
</g>
</svg>
