<svg width="12" height="19" viewBox="0 0 12 19" fill="none" xmlns="http://www.w3.org/2000/svg">
<path d="M6.84686 12.0817C7.31622 11.623 7.31753 10.8806 6.84977 10.4236C6.38202 9.96647 5.62234 9.96775 5.15298 10.4264C4.68362 10.8851 4.68231 11.6274 5.15006 12.0845C5.61782 12.5416 6.3775 12.5403 6.84686 12.0817Z" fill="#085DA1"/>
<path d="M9.6 1.28652H9.0375C8.98079 1.28674 8.92477 1.27439 8.87365 1.2504C8.82253 1.2264 8.77765 1.19139 8.74238 1.148C8.63029 1.00845 8.48722 0.895624 8.32396 0.818047C8.1607 0.740469 7.98154 0.70017 7.8 0.700195H4.2C4.00815 0.70028 3.81912 0.745313 3.64876 0.831518C3.4784 0.917723 3.33167 1.04259 3.22087 1.19564C3.1999 1.22394 3.17232 1.24694 3.14043 1.26275C3.10854 1.27855 3.07326 1.2867 3.0375 1.28652H2.4C1.01962 1.28652 0 2.34337 0 3.63182V12.9764C0 13.8291 0.96 14.5177 3.1125 15.2095C4.02152 15.4961 4.94483 15.7374 5.87888 15.9325C5.95879 15.9486 6.04122 15.9486 6.12113 15.9325C7.05517 15.7374 7.97848 15.4961 8.8875 15.2095C11.04 14.5177 12 13.8291 12 12.9764V3.63182C12 3.0098 11.7471 2.41327 11.2971 1.97344C10.847 1.53361 10.2365 1.28652 9.6 1.28652ZM3.3 4.80446H8.7C8.77956 4.80446 8.85587 4.83535 8.91213 4.89033C8.96839 4.94531 9 5.01988 9 5.09763V6.8566C9 6.93435 8.96839 7.00892 8.91213 7.0639C8.85587 7.11887 8.77956 7.14976 8.7 7.14976H3.3C3.22044 7.14976 3.14413 7.11887 3.08787 7.0639C3.03161 7.00892 3 6.93435 3 6.8566V5.09763C3 5.01988 3.03161 4.94531 3.08787 4.89033C3.14413 4.83535 3.22044 4.80446 3.3 4.80446ZM6.15675 13.5946C5.66977 13.6257 5.18465 13.5109 4.7661 13.2657C4.34754 13.0205 4.01544 12.6564 3.81407 12.222C3.6127 11.7876 3.55164 11.3035 3.63902 10.8343C3.72641 10.3651 3.95809 9.9331 4.30318 9.59588C4.64826 9.25867 5.09035 9.03226 5.57048 8.94687C6.05062 8.86147 6.54598 8.92114 6.99053 9.11792C7.43507 9.3147 7.80765 9.63924 8.05861 10.0483C8.30956 10.4573 8.42695 10.9313 8.39513 11.4072C8.3566 11.9749 8.1084 12.5097 7.69668 12.912C7.28496 13.3144 6.73773 13.5569 6.15675 13.5946Z" fill="#085DA1"/>
<path d="M11.2241 17.2892L9.43606 15.5415C9.20768 15.318 8.83606 15.2975 8.59681 15.51C8.53666 15.5634 8.48823 15.6281 8.45445 15.7003C8.42066 15.7725 8.40223 15.8506 8.40027 15.93C8.3983 16.0093 8.41285 16.0883 8.44302 16.162C8.4732 16.2357 8.51837 16.3026 8.57581 16.3587L8.75131 16.5306H3.24855L3.41205 16.3705C3.6408 16.1473 3.6618 15.7841 3.4443 15.5503C3.3897 15.4916 3.32346 15.4442 3.24959 15.4112C3.17572 15.3782 3.09576 15.3602 3.01455 15.3583C2.93334 15.3564 2.85258 15.3706 2.77717 15.4001C2.70175 15.4295 2.63324 15.4737 2.5758 15.5298L0.7758 17.2888C0.717739 17.3427 0.671309 17.4074 0.639246 17.4791C0.607184 17.5508 0.590137 17.6281 0.589112 17.7064C0.588086 17.7846 0.603103 17.8623 0.633276 17.9348C0.66345 18.0073 0.708169 18.0731 0.764799 18.1285C0.821428 18.1838 0.888821 18.2275 0.963006 18.257C1.03719 18.2865 1.11666 18.3011 1.19674 18.3001C1.27682 18.2991 1.35589 18.2825 1.42928 18.2512C1.50266 18.2198 1.56889 18.1744 1.62405 18.1177L2.04855 17.7036H9.95131L10.3758 18.1181C10.4892 18.2234 10.6403 18.2812 10.7968 18.2793C10.9532 18.2773 11.1027 18.2157 11.2133 18.1076C11.324 17.9995 11.387 17.8534 11.389 17.7005C11.391 17.5476 11.3318 17.4 11.2241 17.2892Z" fill="#085DA1"/>
</svg>
