<svg width="16" height="16" viewBox="0 0 16 16" fill="none" xmlns="http://www.w3.org/2000/svg">
<path d="M7.66669 14.332V12.9987C8.58335 12.9987 9.00002 12.332 9.00002 12.332C9.00002 12.332 9.47221 13.0178 10.4167 12.9987C11.3028 12.9808 11.6667 12.332 11.6667 12.332C11.6667 12.332 12.0845 12.9987 13 12.9987C13.9155 12.9987 14.3334 12.332 14.3334 12.332V14.332H7.66669Z" fill="#2196F3"/>
<path d="M7.33335 12.7487L5.16669 11.9987C5.16669 11.9987 6.83552 10.7432 7.58335 9.66536C9.0281 7.58304 9.16669 3.33203 9.16669 3.33203H9.75002C9.75002 3.33203 10.0339 7.59142 9.00002 9.9987C8.31998 11.582 7.33335 12.7487 7.33335 12.7487Z" fill="#795548"/>
<path d="M1.66669 14.332V11.332C1.66669 11.332 4.95938 11.6586 6.83335 12.332C8.92055 13.082 10.5834 14.332 10.5834 14.332H1.66669Z" fill="#FFC107"/>
<path d="M13 4.83461C14.0833 6.58464 12.8333 8.50128 12.8333 8.50128C12.8333 8.50128 11.75 6.41797 10.8333 5.08464C10.3893 4.43878 9.5 3.50128 9.5 3.50128C9.5 3.50128 11.6739 2.69248 13 4.83461Z" fill="#4CAF50"/>
<path d="M12.0133 2.40318C13.4867 2.73864 13.8333 4.33203 13.8333 4.33203C13.8333 4.33203 12.3367 3.62502 11.1667 3.41536C10.5999 3.31381 9.5 3.4934 9.5 3.4934C9.5 3.4934 10.2099 1.99255 12.0133 2.40318Z" fill="#388E3C"/>
<path d="M7.14774 1.50188C5.37581 1.43572 4.5 3.13756 4.5 3.13756C4.5 3.13756 6.41095 2.78945 7.80087 2.90633C8.47413 2.96295 9.66667 3.5 9.66667 3.5C9.66667 3.5 9.31668 1.58286 7.14774 1.50188Z" fill="#388E3C"/>
<path d="M5.856 4.23603C4.43934 6.06938 5.81028 8.31938 5.81028 8.31938C5.81028 8.31938 6.81627 5.98419 7.93934 4.81938C8.60596 4.12798 9.68931 3.48601 9.68931 3.48601C9.68931 3.48601 7.39645 2.2425 5.856 4.23603Z" fill="#4CAF50"/>
</svg>
